<?xml version="1.0" encoding="UTF-8" standalone="no"?>
<svg
   xmlns:dc="http://purl.org/dc/elements/1.1/"
   xmlns:cc="http://creativecommons.org/ns#"
   xmlns:rdf="http://www.w3.org/1999/02/22-rdf-syntax-ns#"
   xmlns:svg="http://www.w3.org/2000/svg"
   xmlns="http://www.w3.org/2000/svg"
   height="18"
   width="12.400806"
   id="svg4"
   version="1.1"
   viewBox="0 0 12.400806 18">
  <metadata
     id="metadata10">
    <rdf:RDF>
      <cc:Work
         rdf:about="">
        <dc:format>image/svg+xml</dc:format>
        <dc:type
           rdf:resource="http://purl.org/dc/dcmitype/StillImage" />
        <dc:title></dc:title>
      </cc:Work>
    </rdf:RDF>
  </metadata>
  <defs
     id="defs8" />
  <path
     id="path2"
     d="M 6.2011719,0 C 2.7228214,-0.10090909 -0.32066819,3.1771407 0.01005954,6.6349192 0.22070477,9.0888218 1.4693123,11.298812 2.7379753,13.354882 3.7800262,14.982738 4.9399357,16.53553 6.2011719,18 8.3792839,15.418608 10.398453,12.635111 11.689262,9.4946372 12.407641,7.7642888 12.703836,5.760072 11.967398,3.9821282 11.086763,1.6445071 8.7108409,-0.03268166 6.2011719,0 Z m 0,4.0996094 C 7.6222005,4.0559256 8.7768172,5.6125443 8.3002674,6.9585344 7.973401,8.1500056 6.5856265,8.9459686 5.4105588,8.4635257 3.8047139,7.9226355 3.4937129,5.4548768 4.89091,4.5121144 5.2693081,4.2396892 5.7359895,4.0983841 6.2011719,4.0996094 Z"
     style="fill:#000000" />
</svg>
