<svg xmlns="http://www.w3.org/2000/svg" viewBox="0 0 176 52">
  <path fill="#FFF" d="M0 16.4v.1l29.8 13.8 29.8-13.8L29.8 2.5 0 16.4zm10.7 0l19-8.8 19 8.8-19 8.8-19-8.8zm19 19.2L0 22.1v5l29.8 13.6L59.6 27v-5L29.8 35.6zm0 10.2L0 32.2v5l29.8 13.6 29.8-13.6v-5L29.8 45.8zm139.5-19.6a8.6 8.6 0 00-2.3-5.9 7.7 7.7 0 00-2.4-1.7 7.3 7.3 0 00-3-.7 7.3 7.3 0 00-3 .7 7.7 7.7 0 00-2.5 1.7 8.6 8.6 0 00-2.3 6A8.6 8.6 0 00156 32a7.7 7.7 0 002.4 1.8 7.3 7.3 0 003 .6 7.3 7.3 0 003-.6A7.7 7.7 0 00167 32a8.6 8.6 0 002.3-5.9zm6.8 0c0 2-.4 4-1.1 5.7a13.8 13.8 0 01-3.1 4.5 14.8 14.8 0 01-16 3 14.7 14.7 0 01-4.6-3 14.1 14.1 0 01-3.1-4.5 14 14 0 010-11.3 14.7 14.7 0 013.1-4.5 14.5 14.5 0 014.6-3.1 14.6 14.6 0 0119 7.6c.8 1.7 1.2 3.6 1.2 5.6zm-31.4 13.5a9 9 0 01-1.8.6 9.2 9.2 0 01-2.1.3c-1 0-2-.2-3-.4a6.3 6.3 0 01-2.4-1.3 6.3 6.3 0 01-1.6-2.4c-.4-1-.6-2-.6-3.4V.7h7V32c0 1.1.1 1.9.6 2.3.4.4 1 .6 1.6.6a4 4 0 002.3-.7v5.6zM130 12.5L117.8 45a11 11 0 01-3.6 5.3 8.8 8.8 0 01-5.3 1.6 8.4 8.4 0 01-1-.1 7.8 7.8 0 01-1.1-.2l-2.3-6.3a9 9 0 001.7.6 6.6 6.6 0 001.6.2c1 0 2-.3 3-.8.8-.4 1.5-1.3 2-2.7l.9-2.7-10.5-27.2h7.4l6.2 17.5 6-17.5h7.2zm-28.5-4H83.8v8.7h17.5v6H83.8v16.6h-7.2V2.2h25v6.2z"/>
</svg>
